# xmcd
#
# Track frame offsets:
#	150
#	17407
#	52860
#	84202
#	107415
#	124557
#	154332
#	167138
#	192259
#
# Disc length: 3371 seconds
#
# Revision: 1
# Processed by: cddbd v1.5.1PL2 Copyright (c) Steve Scherf et al.
# Submitted via: audiograbber 1.81.03
#
DISCID=5d0d2909
DTITLE=Johnny and the Mo Tones - Two Hits For The Kitty Sun Studio Sessions
DYEAR=2006
DGENRE=Blues
TTITLE0=Walk On
TTITLE1=Terminal Blues
TTITLE2=Blues For The Killer
TTITLE3=Two Hits For The Kitty
TTITLE4=Puff's Blues
TTITLE5=Walking Away
TTITLE6=Bo Did Boogie
TTITLE7=I Don't Know Why
TTITLE8=Data track
EXTD=
EXTT0=
EXTT1=
EXTT2=
EXTT3=
EXTT4=
EXTT5=
EXTT6=
EXTT7=
EXTT8=
PLAYORDER=
